<?xml version="1.0" encoding="UTF-8"?>
<!DOCTYPE svg PUBLIC "-//W3C//DTD SVG 1.1//EN" "http://www.w3.org/Graphics/SVG/1.1/DTD/svg11.dtd">
<svg xmlns="http://www.w3.org/2000/svg" version="1.1" width="1024px" height="1024px" style="shape-rendering:geometricPrecision; text-rendering:geometricPrecision; image-rendering:optimizeQuality; fill-rule:evenodd; clip-rule:evenodd" xmlns:xlink="http://www.w3.org/1999/xlink">
<g><path style="opacity:1" fill="#f0f0ef" d="M 589.5,427.5 C 592.42,432.268 595.586,436.934 599,441.5C 601.626,444.231 604.793,446.064 608.5,447C 611.333,449.833 614.167,452.667 617,455.5C 620.451,465.971 623.285,476.637 625.5,487.5C 623.561,490.615 621.394,493.615 619,496.5C 606.292,509.041 593.792,521.708 581.5,534.5C 569.214,525.549 557.214,516.215 545.5,506.5C 547.483,503.397 548.316,500.064 548,496.5C 539.727,504.384 532.394,513.051 526,522.5C 511.922,511.878 497.756,501.378 483.5,491C 480.292,486.753 477.458,482.253 475,477.5C 472.629,474.794 469.963,472.461 467,470.5C 470.078,476.657 473.245,482.99 476.5,489.5C 475.667,489.833 474.833,490.167 474,490.5C 461.851,488.877 449.684,487.377 437.5,486C 430.936,480.469 424.102,475.302 417,470.5C 413.948,458.432 412.948,458.765 414,471.5C 419.708,476.877 425.708,481.877 432,486.5C 434.861,490.888 437.194,495.554 439,500.5C 444.694,508.027 450.194,515.694 455.5,523.5C 450.557,530.608 444.39,536.608 437,541.5C 433.275,539.701 429.442,538.534 425.5,538C 429.38,541.388 433.38,544.554 437.5,547.5C 435.62,554.113 433.953,560.78 432.5,567.5C 425.248,572.042 418.081,576.709 411,581.5C 409.069,588.626 406.736,595.626 404,602.5C 397.612,608.223 392.779,615.057 389.5,623C 390.167,623.667 390.833,623.667 391.5,623C 396.96,615.206 403.46,608.373 411,602.5C 415.5,594.167 420,585.833 424.5,577.5C 435.99,583.078 447.323,588.911 458.5,595C 459.574,595.739 460.241,596.739 460.5,598C 459.892,602.381 459.225,606.715 458.5,611C 464.827,609.356 471.16,607.356 477.5,605C 478.944,604.219 480.277,604.386 481.5,605.5C 487.808,614.308 494.308,622.975 501,631.5C 501.873,640.051 502.707,648.551 503.5,657C 501.256,665.469 499.422,673.969 498,682.5C 504.485,669.899 507.485,656.566 507,642.5C 514.763,629.978 521.763,616.978 528,603.5C 529.374,600.725 531.207,598.392 533.5,596.5C 554.2,605.065 574.533,614.399 594.5,624.5C 593.153,628.888 591.653,633.221 590,637.5C 585.033,641.466 580.366,645.799 576,650.5C 575.312,651.332 575.479,651.998 576.5,652.5C 582.336,648.748 588.336,645.248 594.5,642C 596.926,638.484 599.593,635.151 602.5,632C 609.784,627.05 616.784,621.717 623.5,616C 624.833,615.333 626.167,615.333 627.5,616C 634.517,620.845 642.184,624.012 650.5,625.5C 648.925,623.059 646.592,621.893 643.5,622C 642.745,619.867 641.412,618.2 639.5,617C 633.619,613.622 627.619,610.456 621.5,607.5C 627.824,594.184 634.657,581.184 642,568.5C 646.926,571.714 652.093,574.548 657.5,577C 658.088,580.608 659.088,584.108 660.5,587.5C 663.435,583.287 666.601,579.287 670,575.5C 674.84,576.446 679.673,577.446 684.5,578.5C 685.167,578.167 685.833,577.833 686.5,577.5C 686.813,567.651 686.98,557.318 687,546.5C 691.913,539.863 697.413,533.696 703.5,528C 704.167,527.333 704.833,527.333 705.5,528C 707.573,530.45 710.073,532.283 713,533.5C 715.156,531.199 716.822,528.533 718,525.5C 723.173,604.011 697.673,670.511 641.5,725C 581.103,775.284 514.103,787.284 440.5,761C 379.344,733.839 338.51,688.339 318,624.5C 300.232,555.199 302.232,486.199 324,417.5C 341.067,363.842 369.9,317.676 410.5,279C 479.158,219.399 547.825,219.733 616.5,280C 666.132,328.412 697.632,386.912 711,455.5C 714.226,471.742 716.226,488.075 717,504.5C 713.816,502.242 710.483,500.242 707,498.5C 695.71,502.703 684.544,506.87 673.5,511C 666.433,502.271 659.767,493.271 653.5,484C 656.18,470.563 658.347,457.397 660,444.5C 656.937,448.569 654.27,452.902 652,457.5C 650.126,463.624 647.959,469.624 645.5,475.5C 639.833,472.333 634.167,469.167 628.5,466C 626.765,463.808 625.598,461.308 625,458.5C 620.779,454.279 616.613,450.113 612.5,446C 609.56,444.848 606.56,443.848 603.5,443C 598.968,437.638 594.301,432.472 589.5,427.5 Z M 589.5,427.5 C 586.724,425.948 585.557,423.614 586,420.5C 587.193,422.886 588.36,425.22 589.5,427.5 Z M 489.5,536.5 C 495.134,536.963 497.634,539.963 497,545.5C 495.336,550.038 492.169,551.538 487.5,550C 481.854,544.44 482.521,539.94 489.5,536.5 Z M 650.5,625.5 C 652.017,625.511 653.184,626.177 654,627.5C 655.368,630.738 655.701,634.072 655,637.5C 653.406,633.555 651.906,629.555 650.5,625.5 Z"/></g>
<g><path style="opacity:1" fill="#fbfbfb" d="M 484.5,522.5 C 501.234,520.579 510.568,527.912 512.5,544.5C 511.553,557.894 504.387,565.227 491,566.5C 473.166,562.835 466.5,552.168 471,534.5C 473.85,528.514 478.35,524.514 484.5,522.5 Z M 489.5,536.5 C 482.521,539.94 481.854,544.44 487.5,550C 492.169,551.538 495.336,550.038 497,545.5C 497.634,539.963 495.134,536.963 489.5,536.5 Z"/></g>
</svg>